<svg height="800px" width="800px" version="1.1" id="Layer_1"
    xmlns="http://www.w3.org/2000/svg"
    xmlns:xlink="http://www.w3.org/1999/xlink" viewBox="0 0 511.984 511.984" xml:space="preserve">
    <polygon style="fill:#D94452;" points="300.228,302.256 277.605,324.881 187.107,234.382 209.731,211.758 262.519,219.297 
	292.682,249.468 "/>
    <g>
        <path style="fill:#EC5564;" d="M217.293,264.521l7.547-7.539c4.164-4.163,4.164-10.913,0-15.077
		c-4.172-4.172-10.921-4.172-15.085,0l-7.539,7.539c-0.008,0.008-0.016,0.016-0.023,0.023l15.078,15.077
		C217.278,264.537,217.285,264.529,217.293,264.521z"/>
        <path style="fill:#EC5564;" d="M239.918,287.146l7.539-7.531c4.172-4.172,4.172-10.922,0-15.094
		c-4.164-4.164-10.914-4.164-15.078,0l-7.539,7.547c-0.008,0.016-0.016,0.016-0.023,0.016l15.078,15.094
		C239.902,287.162,239.91,287.146,239.918,287.146z"/>
        <path style="fill:#EC5564;" d="M270.082,287.146L270.082,287.146c-4.164-4.156-10.914-4.156-15.078,0l-7.547,7.547
		c-0.008,0.016-0.008,0.016-0.016,0.016l15.078,15.094l0.023-0.031l7.539-7.531C274.246,298.068,274.246,291.318,270.082,287.146z" />
    </g>
    <polygon style="fill:#E6E9ED;" points="247.433,294.709 98.039,444.111 82.953,474.281 30.166,511.984 0.003,481.828 
	37.705,429.033 67.868,413.955 217.27,264.545 "/>
    <path style="fill:#EC5564;" d="M508.864,78.535c4.156,4.172,4.156,10.921,0,15.085L322.853,279.63
	c-4.172,4.172-10.922,4.172-15.078,0l-75.419-75.412c-4.164-4.164-4.164-10.922,0-15.085l186.01-186.01
	c4.156-4.164,10.906-4.164,15.094,0L508.864,78.535z"/>
    <g>
        <path style="fill:#D94452;" d="M300.228,211.758L300.228,211.758c-4.171-4.164-4.171-10.914,0-15.086L433.46,63.457
		c4.156-4.164,10.906-4.164,15.062,0l0,0c4.188,4.164,4.188,10.914,0,15.078L315.306,211.758
		C311.15,215.922,304.4,215.922,300.228,211.758z"/>
        <path style="fill:#D94452;" d="M270.066,166.51L403.272,33.286c4.188-4.164,4.188-10.914,0-15.078L254.98,166.51
		C259.144,170.674,265.894,170.674,270.066,166.51z"/>
        <path style="fill:#D94452;" d="M478.692,108.706L345.478,241.921c-4.172,4.172-4.172,10.922,0,15.084l148.292-148.3
		C489.614,104.534,482.864,104.534,478.692,108.706z"/>
    </g>
    <polygon style="fill:#CCD1D9;" points="37.705,429.033 0.003,481.828 30.166,511.984 82.953,474.281 97.914,444.361 67.618,414.08 
	"/>
    <polygon style="fill:#424953;" points="47.76,499.422 12.565,464.236 0.003,481.828 30.166,511.984 "/>
</svg>